<mxfile host="app.diagrams.net" modified="2023-08-02T02:53:53.041Z" agent="Mozilla/5.0 (Windows NT 10.0; Win64; x64; rv:109.0) Gecko/20100101 Firefox/113.0" etag="Ni17-0rwJNnsrvlSwfYx" version="21.6.2" type="device">
  <diagram name="Page-1" id="ULDmmRku1DHwZxI24iaz">
    <mxGraphModel dx="2068" dy="2088" grid="1" gridSize="10" guides="1" tooltips="1" connect="1" arrows="1" fold="1" page="1" pageScale="1" pageWidth="850" pageHeight="1100" math="0" shadow="0">
      <root>
        <mxCell id="0" />
        <mxCell id="1" parent="0" />
        <mxCell id="03izMQPzzDkmwgU2qGfy-1" value="Driver" style="shape=table;startSize=30;container=1;collapsible=1;childLayout=tableLayout;fixedRows=1;rowLines=0;fontStyle=1;align=center;resizeLast=1;html=1;" parent="1" vertex="1">
          <mxGeometry x="390" y="290" width="180" height="180" as="geometry" />
        </mxCell>
        <mxCell id="03izMQPzzDkmwgU2qGfy-2" value="" style="shape=tableRow;horizontal=0;startSize=0;swimlaneHead=0;swimlaneBody=0;fillColor=none;collapsible=0;dropTarget=0;points=[[0,0.5],[1,0.5]];portConstraint=eastwest;top=0;left=0;right=0;bottom=1;" parent="03izMQPzzDkmwgU2qGfy-1" vertex="1">
          <mxGeometry y="30" width="180" height="30" as="geometry" />
        </mxCell>
        <mxCell id="03izMQPzzDkmwgU2qGfy-3" value="PK" style="shape=partialRectangle;connectable=0;fillColor=none;top=0;left=0;bottom=0;right=0;fontStyle=1;overflow=hidden;whiteSpace=wrap;html=1;" parent="03izMQPzzDkmwgU2qGfy-2" vertex="1">
          <mxGeometry width="30" height="30" as="geometry">
            <mxRectangle width="30" height="30" as="alternateBounds" />
          </mxGeometry>
        </mxCell>
        <mxCell id="03izMQPzzDkmwgU2qGfy-4" value="DriverId" style="shape=partialRectangle;connectable=0;fillColor=none;top=0;left=0;bottom=0;right=0;align=left;spacingLeft=6;fontStyle=5;overflow=hidden;whiteSpace=wrap;html=1;" parent="03izMQPzzDkmwgU2qGfy-2" vertex="1">
          <mxGeometry x="30" width="150" height="30" as="geometry">
            <mxRectangle width="150" height="30" as="alternateBounds" />
          </mxGeometry>
        </mxCell>
        <mxCell id="03izMQPzzDkmwgU2qGfy-5" value="" style="shape=tableRow;horizontal=0;startSize=0;swimlaneHead=0;swimlaneBody=0;fillColor=none;collapsible=0;dropTarget=0;points=[[0,0.5],[1,0.5]];portConstraint=eastwest;top=0;left=0;right=0;bottom=0;" parent="03izMQPzzDkmwgU2qGfy-1" vertex="1">
          <mxGeometry y="60" width="180" height="30" as="geometry" />
        </mxCell>
        <mxCell id="03izMQPzzDkmwgU2qGfy-6" value="" style="shape=partialRectangle;connectable=0;fillColor=none;top=0;left=0;bottom=0;right=0;editable=1;overflow=hidden;whiteSpace=wrap;html=1;" parent="03izMQPzzDkmwgU2qGfy-5" vertex="1">
          <mxGeometry width="30" height="30" as="geometry">
            <mxRectangle width="30" height="30" as="alternateBounds" />
          </mxGeometry>
        </mxCell>
        <mxCell id="03izMQPzzDkmwgU2qGfy-7" value="FirstName" style="shape=partialRectangle;connectable=0;fillColor=none;top=0;left=0;bottom=0;right=0;align=left;spacingLeft=6;overflow=hidden;whiteSpace=wrap;html=1;" parent="03izMQPzzDkmwgU2qGfy-5" vertex="1">
          <mxGeometry x="30" width="150" height="30" as="geometry">
            <mxRectangle width="150" height="30" as="alternateBounds" />
          </mxGeometry>
        </mxCell>
        <mxCell id="03izMQPzzDkmwgU2qGfy-8" value="" style="shape=tableRow;horizontal=0;startSize=0;swimlaneHead=0;swimlaneBody=0;fillColor=none;collapsible=0;dropTarget=0;points=[[0,0.5],[1,0.5]];portConstraint=eastwest;top=0;left=0;right=0;bottom=0;" parent="03izMQPzzDkmwgU2qGfy-1" vertex="1">
          <mxGeometry y="90" width="180" height="30" as="geometry" />
        </mxCell>
        <mxCell id="03izMQPzzDkmwgU2qGfy-9" value="" style="shape=partialRectangle;connectable=0;fillColor=none;top=0;left=0;bottom=0;right=0;editable=1;overflow=hidden;whiteSpace=wrap;html=1;" parent="03izMQPzzDkmwgU2qGfy-8" vertex="1">
          <mxGeometry width="30" height="30" as="geometry">
            <mxRectangle width="30" height="30" as="alternateBounds" />
          </mxGeometry>
        </mxCell>
        <mxCell id="03izMQPzzDkmwgU2qGfy-10" value="LastName" style="shape=partialRectangle;connectable=0;fillColor=none;top=0;left=0;bottom=0;right=0;align=left;spacingLeft=6;overflow=hidden;whiteSpace=wrap;html=1;" parent="03izMQPzzDkmwgU2qGfy-8" vertex="1">
          <mxGeometry x="30" width="150" height="30" as="geometry">
            <mxRectangle width="150" height="30" as="alternateBounds" />
          </mxGeometry>
        </mxCell>
        <mxCell id="03izMQPzzDkmwgU2qGfy-17" style="shape=tableRow;horizontal=0;startSize=0;swimlaneHead=0;swimlaneBody=0;fillColor=none;collapsible=0;dropTarget=0;points=[[0,0.5],[1,0.5]];portConstraint=eastwest;top=0;left=0;right=0;bottom=0;" parent="03izMQPzzDkmwgU2qGfy-1" vertex="1">
          <mxGeometry y="120" width="180" height="30" as="geometry" />
        </mxCell>
        <mxCell id="03izMQPzzDkmwgU2qGfy-18" style="shape=partialRectangle;connectable=0;fillColor=none;top=0;left=0;bottom=0;right=0;editable=1;overflow=hidden;whiteSpace=wrap;html=1;" parent="03izMQPzzDkmwgU2qGfy-17" vertex="1">
          <mxGeometry width="30" height="30" as="geometry">
            <mxRectangle width="30" height="30" as="alternateBounds" />
          </mxGeometry>
        </mxCell>
        <mxCell id="03izMQPzzDkmwgU2qGfy-19" value="PhoNum" style="shape=partialRectangle;connectable=0;fillColor=none;top=0;left=0;bottom=0;right=0;align=left;spacingLeft=6;overflow=hidden;whiteSpace=wrap;html=1;" parent="03izMQPzzDkmwgU2qGfy-17" vertex="1">
          <mxGeometry x="30" width="150" height="30" as="geometry">
            <mxRectangle width="150" height="30" as="alternateBounds" />
          </mxGeometry>
        </mxCell>
        <mxCell id="03izMQPzzDkmwgU2qGfy-20" style="shape=tableRow;horizontal=0;startSize=0;swimlaneHead=0;swimlaneBody=0;fillColor=none;collapsible=0;dropTarget=0;points=[[0,0.5],[1,0.5]];portConstraint=eastwest;top=0;left=0;right=0;bottom=0;" parent="03izMQPzzDkmwgU2qGfy-1" vertex="1">
          <mxGeometry y="150" width="180" height="30" as="geometry" />
        </mxCell>
        <mxCell id="03izMQPzzDkmwgU2qGfy-21" style="shape=partialRectangle;connectable=0;fillColor=none;top=0;left=0;bottom=0;right=0;editable=1;overflow=hidden;whiteSpace=wrap;html=1;" parent="03izMQPzzDkmwgU2qGfy-20" vertex="1">
          <mxGeometry width="30" height="30" as="geometry">
            <mxRectangle width="30" height="30" as="alternateBounds" />
          </mxGeometry>
        </mxCell>
        <mxCell id="03izMQPzzDkmwgU2qGfy-22" value="Email" style="shape=partialRectangle;connectable=0;fillColor=none;top=0;left=0;bottom=0;right=0;align=left;spacingLeft=6;overflow=hidden;whiteSpace=wrap;html=1;" parent="03izMQPzzDkmwgU2qGfy-20" vertex="1">
          <mxGeometry x="30" width="150" height="30" as="geometry">
            <mxRectangle width="150" height="30" as="alternateBounds" />
          </mxGeometry>
        </mxCell>
        <mxCell id="03izMQPzzDkmwgU2qGfy-29" value="DriverCars" style="shape=table;startSize=30;container=1;collapsible=1;childLayout=tableLayout;fixedRows=1;rowLines=0;fontStyle=1;align=center;resizeLast=1;html=1;whiteSpace=wrap;" parent="1" vertex="1">
          <mxGeometry x="120" y="185" width="180" height="90" as="geometry" />
        </mxCell>
        <mxCell id="03izMQPzzDkmwgU2qGfy-30" value="" style="shape=tableRow;horizontal=0;startSize=0;swimlaneHead=0;swimlaneBody=0;fillColor=none;collapsible=0;dropTarget=0;points=[[0,0.5],[1,0.5]];portConstraint=eastwest;top=0;left=0;right=0;bottom=0;html=1;" parent="03izMQPzzDkmwgU2qGfy-29" vertex="1">
          <mxGeometry y="30" width="180" height="30" as="geometry" />
        </mxCell>
        <mxCell id="03izMQPzzDkmwgU2qGfy-31" value="PK,FK1" style="shape=partialRectangle;connectable=0;fillColor=none;top=0;left=0;bottom=0;right=0;fontStyle=1;overflow=hidden;html=1;whiteSpace=wrap;" parent="03izMQPzzDkmwgU2qGfy-30" vertex="1">
          <mxGeometry width="60" height="30" as="geometry">
            <mxRectangle width="60" height="30" as="alternateBounds" />
          </mxGeometry>
        </mxCell>
        <mxCell id="03izMQPzzDkmwgU2qGfy-32" value="CarId" style="shape=partialRectangle;connectable=0;fillColor=none;top=0;left=0;bottom=0;right=0;align=left;spacingLeft=6;fontStyle=5;overflow=hidden;html=1;whiteSpace=wrap;" parent="03izMQPzzDkmwgU2qGfy-30" vertex="1">
          <mxGeometry x="60" width="120" height="30" as="geometry">
            <mxRectangle width="120" height="30" as="alternateBounds" />
          </mxGeometry>
        </mxCell>
        <mxCell id="03izMQPzzDkmwgU2qGfy-33" value="" style="shape=tableRow;horizontal=0;startSize=0;swimlaneHead=0;swimlaneBody=0;fillColor=none;collapsible=0;dropTarget=0;points=[[0,0.5],[1,0.5]];portConstraint=eastwest;top=0;left=0;right=0;bottom=1;html=1;" parent="03izMQPzzDkmwgU2qGfy-29" vertex="1">
          <mxGeometry y="60" width="180" height="30" as="geometry" />
        </mxCell>
        <mxCell id="03izMQPzzDkmwgU2qGfy-34" value="PK,FK2" style="shape=partialRectangle;connectable=0;fillColor=none;top=0;left=0;bottom=0;right=0;fontStyle=1;overflow=hidden;html=1;whiteSpace=wrap;" parent="03izMQPzzDkmwgU2qGfy-33" vertex="1">
          <mxGeometry width="60" height="30" as="geometry">
            <mxRectangle width="60" height="30" as="alternateBounds" />
          </mxGeometry>
        </mxCell>
        <mxCell id="03izMQPzzDkmwgU2qGfy-35" value="DriverId" style="shape=partialRectangle;connectable=0;fillColor=none;top=0;left=0;bottom=0;right=0;align=left;spacingLeft=6;fontStyle=5;overflow=hidden;html=1;whiteSpace=wrap;" parent="03izMQPzzDkmwgU2qGfy-33" vertex="1">
          <mxGeometry x="60" width="120" height="30" as="geometry">
            <mxRectangle width="120" height="30" as="alternateBounds" />
          </mxGeometry>
        </mxCell>
        <mxCell id="03izMQPzzDkmwgU2qGfy-42" value="CarType" style="shape=table;startSize=30;container=1;collapsible=1;childLayout=tableLayout;fixedRows=1;rowLines=0;fontStyle=1;align=center;resizeLast=1;html=1;" parent="1" vertex="1">
          <mxGeometry x="380" y="90" width="180" height="180" as="geometry" />
        </mxCell>
        <mxCell id="03izMQPzzDkmwgU2qGfy-43" value="" style="shape=tableRow;horizontal=0;startSize=0;swimlaneHead=0;swimlaneBody=0;fillColor=none;collapsible=0;dropTarget=0;points=[[0,0.5],[1,0.5]];portConstraint=eastwest;top=0;left=0;right=0;bottom=1;" parent="03izMQPzzDkmwgU2qGfy-42" vertex="1">
          <mxGeometry y="30" width="180" height="30" as="geometry" />
        </mxCell>
        <mxCell id="03izMQPzzDkmwgU2qGfy-44" value="PK" style="shape=partialRectangle;connectable=0;fillColor=none;top=0;left=0;bottom=0;right=0;fontStyle=1;overflow=hidden;whiteSpace=wrap;html=1;" parent="03izMQPzzDkmwgU2qGfy-43" vertex="1">
          <mxGeometry width="30" height="30" as="geometry">
            <mxRectangle width="30" height="30" as="alternateBounds" />
          </mxGeometry>
        </mxCell>
        <mxCell id="03izMQPzzDkmwgU2qGfy-45" value="CarId" style="shape=partialRectangle;connectable=0;fillColor=none;top=0;left=0;bottom=0;right=0;align=left;spacingLeft=6;fontStyle=5;overflow=hidden;whiteSpace=wrap;html=1;" parent="03izMQPzzDkmwgU2qGfy-43" vertex="1">
          <mxGeometry x="30" width="150" height="30" as="geometry">
            <mxRectangle width="150" height="30" as="alternateBounds" />
          </mxGeometry>
        </mxCell>
        <mxCell id="03izMQPzzDkmwgU2qGfy-49" value="" style="shape=tableRow;horizontal=0;startSize=0;swimlaneHead=0;swimlaneBody=0;fillColor=none;collapsible=0;dropTarget=0;points=[[0,0.5],[1,0.5]];portConstraint=eastwest;top=0;left=0;right=0;bottom=0;" parent="03izMQPzzDkmwgU2qGfy-42" vertex="1">
          <mxGeometry y="60" width="180" height="30" as="geometry" />
        </mxCell>
        <mxCell id="03izMQPzzDkmwgU2qGfy-50" value="" style="shape=partialRectangle;connectable=0;fillColor=none;top=0;left=0;bottom=0;right=0;editable=1;overflow=hidden;whiteSpace=wrap;html=1;" parent="03izMQPzzDkmwgU2qGfy-49" vertex="1">
          <mxGeometry width="30" height="30" as="geometry">
            <mxRectangle width="30" height="30" as="alternateBounds" />
          </mxGeometry>
        </mxCell>
        <mxCell id="03izMQPzzDkmwgU2qGfy-51" value="Make" style="shape=partialRectangle;connectable=0;fillColor=none;top=0;left=0;bottom=0;right=0;align=left;spacingLeft=6;overflow=hidden;whiteSpace=wrap;html=1;" parent="03izMQPzzDkmwgU2qGfy-49" vertex="1">
          <mxGeometry x="30" width="150" height="30" as="geometry">
            <mxRectangle width="150" height="30" as="alternateBounds" />
          </mxGeometry>
        </mxCell>
        <mxCell id="03izMQPzzDkmwgU2qGfy-52" value="" style="shape=tableRow;horizontal=0;startSize=0;swimlaneHead=0;swimlaneBody=0;fillColor=none;collapsible=0;dropTarget=0;points=[[0,0.5],[1,0.5]];portConstraint=eastwest;top=0;left=0;right=0;bottom=0;" parent="03izMQPzzDkmwgU2qGfy-42" vertex="1">
          <mxGeometry y="90" width="180" height="30" as="geometry" />
        </mxCell>
        <mxCell id="03izMQPzzDkmwgU2qGfy-53" value="" style="shape=partialRectangle;connectable=0;fillColor=none;top=0;left=0;bottom=0;right=0;editable=1;overflow=hidden;whiteSpace=wrap;html=1;" parent="03izMQPzzDkmwgU2qGfy-52" vertex="1">
          <mxGeometry width="30" height="30" as="geometry">
            <mxRectangle width="30" height="30" as="alternateBounds" />
          </mxGeometry>
        </mxCell>
        <mxCell id="03izMQPzzDkmwgU2qGfy-54" value="Model" style="shape=partialRectangle;connectable=0;fillColor=none;top=0;left=0;bottom=0;right=0;align=left;spacingLeft=6;overflow=hidden;whiteSpace=wrap;html=1;" parent="03izMQPzzDkmwgU2qGfy-52" vertex="1">
          <mxGeometry x="30" width="150" height="30" as="geometry">
            <mxRectangle width="150" height="30" as="alternateBounds" />
          </mxGeometry>
        </mxCell>
        <mxCell id="03izMQPzzDkmwgU2qGfy-115" style="shape=tableRow;horizontal=0;startSize=0;swimlaneHead=0;swimlaneBody=0;fillColor=none;collapsible=0;dropTarget=0;points=[[0,0.5],[1,0.5]];portConstraint=eastwest;top=0;left=0;right=0;bottom=0;" parent="03izMQPzzDkmwgU2qGfy-42" vertex="1">
          <mxGeometry y="120" width="180" height="30" as="geometry" />
        </mxCell>
        <mxCell id="03izMQPzzDkmwgU2qGfy-116" style="shape=partialRectangle;connectable=0;fillColor=none;top=0;left=0;bottom=0;right=0;editable=1;overflow=hidden;whiteSpace=wrap;html=1;" parent="03izMQPzzDkmwgU2qGfy-115" vertex="1">
          <mxGeometry width="30" height="30" as="geometry">
            <mxRectangle width="30" height="30" as="alternateBounds" />
          </mxGeometry>
        </mxCell>
        <mxCell id="03izMQPzzDkmwgU2qGfy-117" value="Edition" style="shape=partialRectangle;connectable=0;fillColor=none;top=0;left=0;bottom=0;right=0;align=left;spacingLeft=6;overflow=hidden;whiteSpace=wrap;html=1;" parent="03izMQPzzDkmwgU2qGfy-115" vertex="1">
          <mxGeometry x="30" width="150" height="30" as="geometry">
            <mxRectangle width="150" height="30" as="alternateBounds" />
          </mxGeometry>
        </mxCell>
        <mxCell id="03izMQPzzDkmwgU2qGfy-55" style="shape=tableRow;horizontal=0;startSize=0;swimlaneHead=0;swimlaneBody=0;fillColor=none;collapsible=0;dropTarget=0;points=[[0,0.5],[1,0.5]];portConstraint=eastwest;top=0;left=0;right=0;bottom=0;" parent="03izMQPzzDkmwgU2qGfy-42" vertex="1">
          <mxGeometry y="150" width="180" height="30" as="geometry" />
        </mxCell>
        <mxCell id="03izMQPzzDkmwgU2qGfy-56" style="shape=partialRectangle;connectable=0;fillColor=none;top=0;left=0;bottom=0;right=0;editable=1;overflow=hidden;whiteSpace=wrap;html=1;" parent="03izMQPzzDkmwgU2qGfy-55" vertex="1">
          <mxGeometry width="30" height="30" as="geometry">
            <mxRectangle width="30" height="30" as="alternateBounds" />
          </mxGeometry>
        </mxCell>
        <mxCell id="03izMQPzzDkmwgU2qGfy-57" value="Year" style="shape=partialRectangle;connectable=0;fillColor=none;top=0;left=0;bottom=0;right=0;align=left;spacingLeft=6;overflow=hidden;whiteSpace=wrap;html=1;" parent="03izMQPzzDkmwgU2qGfy-55" vertex="1">
          <mxGeometry x="30" width="150" height="30" as="geometry">
            <mxRectangle width="150" height="30" as="alternateBounds" />
          </mxGeometry>
        </mxCell>
        <mxCell id="03izMQPzzDkmwgU2qGfy-64" value="DriverEngines" style="shape=table;startSize=30;container=1;collapsible=1;childLayout=tableLayout;fixedRows=1;rowLines=0;fontStyle=1;align=center;resizeLast=1;html=1;whiteSpace=wrap;" parent="1" vertex="1">
          <mxGeometry x="770" y="-70" width="180" height="90" as="geometry" />
        </mxCell>
        <mxCell id="03izMQPzzDkmwgU2qGfy-65" value="" style="shape=tableRow;horizontal=0;startSize=0;swimlaneHead=0;swimlaneBody=0;fillColor=none;collapsible=0;dropTarget=0;points=[[0,0.5],[1,0.5]];portConstraint=eastwest;top=0;left=0;right=0;bottom=0;html=1;" parent="03izMQPzzDkmwgU2qGfy-64" vertex="1">
          <mxGeometry y="30" width="180" height="30" as="geometry" />
        </mxCell>
        <mxCell id="03izMQPzzDkmwgU2qGfy-66" value="PK,FK1" style="shape=partialRectangle;connectable=0;fillColor=none;top=0;left=0;bottom=0;right=0;fontStyle=1;overflow=hidden;html=1;whiteSpace=wrap;" parent="03izMQPzzDkmwgU2qGfy-65" vertex="1">
          <mxGeometry width="60" height="30" as="geometry">
            <mxRectangle width="60" height="30" as="alternateBounds" />
          </mxGeometry>
        </mxCell>
        <mxCell id="03izMQPzzDkmwgU2qGfy-67" value="EngineId" style="shape=partialRectangle;connectable=0;fillColor=none;top=0;left=0;bottom=0;right=0;align=left;spacingLeft=6;fontStyle=5;overflow=hidden;html=1;whiteSpace=wrap;" parent="03izMQPzzDkmwgU2qGfy-65" vertex="1">
          <mxGeometry x="60" width="120" height="30" as="geometry">
            <mxRectangle width="120" height="30" as="alternateBounds" />
          </mxGeometry>
        </mxCell>
        <mxCell id="03izMQPzzDkmwgU2qGfy-68" value="" style="shape=tableRow;horizontal=0;startSize=0;swimlaneHead=0;swimlaneBody=0;fillColor=none;collapsible=0;dropTarget=0;points=[[0,0.5],[1,0.5]];portConstraint=eastwest;top=0;left=0;right=0;bottom=1;html=1;" parent="03izMQPzzDkmwgU2qGfy-64" vertex="1">
          <mxGeometry y="60" width="180" height="30" as="geometry" />
        </mxCell>
        <mxCell id="03izMQPzzDkmwgU2qGfy-69" value="PK,FK2" style="shape=partialRectangle;connectable=0;fillColor=none;top=0;left=0;bottom=0;right=0;fontStyle=1;overflow=hidden;html=1;whiteSpace=wrap;" parent="03izMQPzzDkmwgU2qGfy-68" vertex="1">
          <mxGeometry width="60" height="30" as="geometry">
            <mxRectangle width="60" height="30" as="alternateBounds" />
          </mxGeometry>
        </mxCell>
        <mxCell id="03izMQPzzDkmwgU2qGfy-70" value="DriverId" style="shape=partialRectangle;connectable=0;fillColor=none;top=0;left=0;bottom=0;right=0;align=left;spacingLeft=6;fontStyle=5;overflow=hidden;html=1;whiteSpace=wrap;" parent="03izMQPzzDkmwgU2qGfy-68" vertex="1">
          <mxGeometry x="60" width="120" height="30" as="geometry">
            <mxRectangle width="120" height="30" as="alternateBounds" />
          </mxGeometry>
        </mxCell>
        <mxCell id="03izMQPzzDkmwgU2qGfy-77" value="Engine" style="shape=table;startSize=30;container=1;collapsible=1;childLayout=tableLayout;fixedRows=1;rowLines=0;fontStyle=1;align=center;resizeLast=1;html=1;" parent="1" vertex="1">
          <mxGeometry x="500" y="-170" width="180" height="180" as="geometry" />
        </mxCell>
        <mxCell id="03izMQPzzDkmwgU2qGfy-78" value="" style="shape=tableRow;horizontal=0;startSize=0;swimlaneHead=0;swimlaneBody=0;fillColor=none;collapsible=0;dropTarget=0;points=[[0,0.5],[1,0.5]];portConstraint=eastwest;top=0;left=0;right=0;bottom=1;" parent="03izMQPzzDkmwgU2qGfy-77" vertex="1">
          <mxGeometry y="30" width="180" height="30" as="geometry" />
        </mxCell>
        <mxCell id="03izMQPzzDkmwgU2qGfy-79" value="PK" style="shape=partialRectangle;connectable=0;fillColor=none;top=0;left=0;bottom=0;right=0;fontStyle=1;overflow=hidden;whiteSpace=wrap;html=1;" parent="03izMQPzzDkmwgU2qGfy-78" vertex="1">
          <mxGeometry width="30" height="30" as="geometry">
            <mxRectangle width="30" height="30" as="alternateBounds" />
          </mxGeometry>
        </mxCell>
        <mxCell id="03izMQPzzDkmwgU2qGfy-80" value="EngineId" style="shape=partialRectangle;connectable=0;fillColor=none;top=0;left=0;bottom=0;right=0;align=left;spacingLeft=6;fontStyle=5;overflow=hidden;whiteSpace=wrap;html=1;" parent="03izMQPzzDkmwgU2qGfy-78" vertex="1">
          <mxGeometry x="30" width="150" height="30" as="geometry">
            <mxRectangle width="150" height="30" as="alternateBounds" />
          </mxGeometry>
        </mxCell>
        <mxCell id="03izMQPzzDkmwgU2qGfy-81" value="" style="shape=tableRow;horizontal=0;startSize=0;swimlaneHead=0;swimlaneBody=0;fillColor=none;collapsible=0;dropTarget=0;points=[[0,0.5],[1,0.5]];portConstraint=eastwest;top=0;left=0;right=0;bottom=0;" parent="03izMQPzzDkmwgU2qGfy-77" vertex="1">
          <mxGeometry y="60" width="180" height="30" as="geometry" />
        </mxCell>
        <mxCell id="03izMQPzzDkmwgU2qGfy-82" value="" style="shape=partialRectangle;connectable=0;fillColor=none;top=0;left=0;bottom=0;right=0;editable=1;overflow=hidden;whiteSpace=wrap;html=1;" parent="03izMQPzzDkmwgU2qGfy-81" vertex="1">
          <mxGeometry width="30" height="30" as="geometry">
            <mxRectangle width="30" height="30" as="alternateBounds" />
          </mxGeometry>
        </mxCell>
        <mxCell id="03izMQPzzDkmwgU2qGfy-83" value="Model" style="shape=partialRectangle;connectable=0;fillColor=none;top=0;left=0;bottom=0;right=0;align=left;spacingLeft=6;overflow=hidden;whiteSpace=wrap;html=1;" parent="03izMQPzzDkmwgU2qGfy-81" vertex="1">
          <mxGeometry x="30" width="150" height="30" as="geometry">
            <mxRectangle width="150" height="30" as="alternateBounds" />
          </mxGeometry>
        </mxCell>
        <mxCell id="03izMQPzzDkmwgU2qGfy-84" value="" style="shape=tableRow;horizontal=0;startSize=0;swimlaneHead=0;swimlaneBody=0;fillColor=none;collapsible=0;dropTarget=0;points=[[0,0.5],[1,0.5]];portConstraint=eastwest;top=0;left=0;right=0;bottom=0;" parent="03izMQPzzDkmwgU2qGfy-77" vertex="1">
          <mxGeometry y="90" width="180" height="30" as="geometry" />
        </mxCell>
        <mxCell id="03izMQPzzDkmwgU2qGfy-85" value="" style="shape=partialRectangle;connectable=0;fillColor=none;top=0;left=0;bottom=0;right=0;editable=1;overflow=hidden;whiteSpace=wrap;html=1;" parent="03izMQPzzDkmwgU2qGfy-84" vertex="1">
          <mxGeometry width="30" height="30" as="geometry">
            <mxRectangle width="30" height="30" as="alternateBounds" />
          </mxGeometry>
        </mxCell>
        <mxCell id="03izMQPzzDkmwgU2qGfy-86" value="Year" style="shape=partialRectangle;connectable=0;fillColor=none;top=0;left=0;bottom=0;right=0;align=left;spacingLeft=6;overflow=hidden;whiteSpace=wrap;html=1;" parent="03izMQPzzDkmwgU2qGfy-84" vertex="1">
          <mxGeometry x="30" width="150" height="30" as="geometry">
            <mxRectangle width="150" height="30" as="alternateBounds" />
          </mxGeometry>
        </mxCell>
        <mxCell id="03izMQPzzDkmwgU2qGfy-217" style="shape=tableRow;horizontal=0;startSize=0;swimlaneHead=0;swimlaneBody=0;fillColor=none;collapsible=0;dropTarget=0;points=[[0,0.5],[1,0.5]];portConstraint=eastwest;top=0;left=0;right=0;bottom=0;" parent="03izMQPzzDkmwgU2qGfy-77" vertex="1">
          <mxGeometry y="120" width="180" height="30" as="geometry" />
        </mxCell>
        <mxCell id="03izMQPzzDkmwgU2qGfy-218" style="shape=partialRectangle;connectable=0;fillColor=none;top=0;left=0;bottom=0;right=0;editable=1;overflow=hidden;whiteSpace=wrap;html=1;" parent="03izMQPzzDkmwgU2qGfy-217" vertex="1">
          <mxGeometry width="30" height="30" as="geometry">
            <mxRectangle width="30" height="30" as="alternateBounds" />
          </mxGeometry>
        </mxCell>
        <mxCell id="03izMQPzzDkmwgU2qGfy-219" value="HorsePower" style="shape=partialRectangle;connectable=0;fillColor=none;top=0;left=0;bottom=0;right=0;align=left;spacingLeft=6;overflow=hidden;whiteSpace=wrap;html=1;" parent="03izMQPzzDkmwgU2qGfy-217" vertex="1">
          <mxGeometry x="30" width="150" height="30" as="geometry">
            <mxRectangle width="150" height="30" as="alternateBounds" />
          </mxGeometry>
        </mxCell>
        <mxCell id="03izMQPzzDkmwgU2qGfy-118" style="shape=tableRow;horizontal=0;startSize=0;swimlaneHead=0;swimlaneBody=0;fillColor=none;collapsible=0;dropTarget=0;points=[[0,0.5],[1,0.5]];portConstraint=eastwest;top=0;left=0;right=0;bottom=0;" parent="03izMQPzzDkmwgU2qGfy-77" vertex="1">
          <mxGeometry y="150" width="180" height="30" as="geometry" />
        </mxCell>
        <mxCell id="03izMQPzzDkmwgU2qGfy-119" style="shape=partialRectangle;connectable=0;fillColor=none;top=0;left=0;bottom=0;right=0;editable=1;overflow=hidden;whiteSpace=wrap;html=1;" parent="03izMQPzzDkmwgU2qGfy-118" vertex="1">
          <mxGeometry width="30" height="30" as="geometry">
            <mxRectangle width="30" height="30" as="alternateBounds" />
          </mxGeometry>
        </mxCell>
        <mxCell id="03izMQPzzDkmwgU2qGfy-120" value="Notes" style="shape=partialRectangle;connectable=0;fillColor=none;top=0;left=0;bottom=0;right=0;align=left;spacingLeft=6;overflow=hidden;whiteSpace=wrap;html=1;" parent="03izMQPzzDkmwgU2qGfy-118" vertex="1">
          <mxGeometry x="30" width="150" height="30" as="geometry">
            <mxRectangle width="150" height="30" as="alternateBounds" />
          </mxGeometry>
        </mxCell>
        <mxCell id="03izMQPzzDkmwgU2qGfy-107" value="" style="edgeStyle=entityRelationEdgeStyle;fontSize=12;html=1;endArrow=ERoneToMany;startArrow=ERmandOne;rounded=0;exitX=0;exitY=0.5;exitDx=0;exitDy=0;entryX=1;entryY=0.5;entryDx=0;entryDy=0;" parent="1" source="03izMQPzzDkmwgU2qGfy-2" target="03izMQPzzDkmwgU2qGfy-33" edge="1">
          <mxGeometry width="100" height="100" relative="1" as="geometry">
            <mxPoint x="160" y="180" as="sourcePoint" />
            <mxPoint x="240" y="200" as="targetPoint" />
          </mxGeometry>
        </mxCell>
        <mxCell id="03izMQPzzDkmwgU2qGfy-108" value="" style="edgeStyle=entityRelationEdgeStyle;fontSize=12;html=1;endArrow=ERoneToMany;startArrow=ERmandOne;rounded=0;exitX=0;exitY=0.5;exitDx=0;exitDy=0;entryX=1;entryY=0.5;entryDx=0;entryDy=0;" parent="1" source="03izMQPzzDkmwgU2qGfy-43" target="03izMQPzzDkmwgU2qGfy-30" edge="1">
          <mxGeometry width="100" height="100" relative="1" as="geometry">
            <mxPoint x="130" y="460" as="sourcePoint" />
            <mxPoint x="270" y="100" as="targetPoint" />
          </mxGeometry>
        </mxCell>
        <mxCell id="03izMQPzzDkmwgU2qGfy-109" value="" style="edgeStyle=entityRelationEdgeStyle;fontSize=12;html=1;endArrow=ERoneToMany;startArrow=ERmandOne;rounded=0;exitX=1;exitY=0.5;exitDx=0;exitDy=0;entryX=0;entryY=0.5;entryDx=0;entryDy=0;" parent="1" source="03izMQPzzDkmwgU2qGfy-2" target="03izMQPzzDkmwgU2qGfy-68" edge="1">
          <mxGeometry width="100" height="100" relative="1" as="geometry">
            <mxPoint x="480" y="160" as="sourcePoint" />
            <mxPoint x="760" y="220" as="targetPoint" />
          </mxGeometry>
        </mxCell>
        <mxCell id="03izMQPzzDkmwgU2qGfy-112" value="" style="edgeStyle=entityRelationEdgeStyle;fontSize=12;html=1;endArrow=ERoneToMany;startArrow=ERmandOne;rounded=0;exitX=1;exitY=0.5;exitDx=0;exitDy=0;entryX=0;entryY=0.5;entryDx=0;entryDy=0;" parent="1" source="03izMQPzzDkmwgU2qGfy-78" target="03izMQPzzDkmwgU2qGfy-65" edge="1">
          <mxGeometry width="100" height="100" relative="1" as="geometry">
            <mxPoint x="450" y="250" as="sourcePoint" />
            <mxPoint x="690" y="70" as="targetPoint" />
          </mxGeometry>
        </mxCell>
        <mxCell id="03izMQPzzDkmwgU2qGfy-121" value="Track" style="shape=table;startSize=30;container=1;collapsible=1;childLayout=tableLayout;fixedRows=1;rowLines=0;fontStyle=1;align=center;resizeLast=1;html=1;" parent="1" vertex="1">
          <mxGeometry x="1020" y="210" width="180" height="270" as="geometry" />
        </mxCell>
        <mxCell id="03izMQPzzDkmwgU2qGfy-122" value="" style="shape=tableRow;horizontal=0;startSize=0;swimlaneHead=0;swimlaneBody=0;fillColor=none;collapsible=0;dropTarget=0;points=[[0,0.5],[1,0.5]];portConstraint=eastwest;top=0;left=0;right=0;bottom=1;" parent="03izMQPzzDkmwgU2qGfy-121" vertex="1">
          <mxGeometry y="30" width="180" height="30" as="geometry" />
        </mxCell>
        <mxCell id="03izMQPzzDkmwgU2qGfy-123" value="PK" style="shape=partialRectangle;connectable=0;fillColor=none;top=0;left=0;bottom=0;right=0;fontStyle=1;overflow=hidden;whiteSpace=wrap;html=1;" parent="03izMQPzzDkmwgU2qGfy-122" vertex="1">
          <mxGeometry width="30" height="30" as="geometry">
            <mxRectangle width="30" height="30" as="alternateBounds" />
          </mxGeometry>
        </mxCell>
        <mxCell id="03izMQPzzDkmwgU2qGfy-124" value="TrackId" style="shape=partialRectangle;connectable=0;fillColor=none;top=0;left=0;bottom=0;right=0;align=left;spacingLeft=6;fontStyle=5;overflow=hidden;whiteSpace=wrap;html=1;" parent="03izMQPzzDkmwgU2qGfy-122" vertex="1">
          <mxGeometry x="30" width="150" height="30" as="geometry">
            <mxRectangle width="150" height="30" as="alternateBounds" />
          </mxGeometry>
        </mxCell>
        <mxCell id="03izMQPzzDkmwgU2qGfy-125" value="" style="shape=tableRow;horizontal=0;startSize=0;swimlaneHead=0;swimlaneBody=0;fillColor=none;collapsible=0;dropTarget=0;points=[[0,0.5],[1,0.5]];portConstraint=eastwest;top=0;left=0;right=0;bottom=0;" parent="03izMQPzzDkmwgU2qGfy-121" vertex="1">
          <mxGeometry y="60" width="180" height="30" as="geometry" />
        </mxCell>
        <mxCell id="03izMQPzzDkmwgU2qGfy-126" value="" style="shape=partialRectangle;connectable=0;fillColor=none;top=0;left=0;bottom=0;right=0;editable=1;overflow=hidden;whiteSpace=wrap;html=1;" parent="03izMQPzzDkmwgU2qGfy-125" vertex="1">
          <mxGeometry width="30" height="30" as="geometry">
            <mxRectangle width="30" height="30" as="alternateBounds" />
          </mxGeometry>
        </mxCell>
        <mxCell id="03izMQPzzDkmwgU2qGfy-127" value="Name" style="shape=partialRectangle;connectable=0;fillColor=none;top=0;left=0;bottom=0;right=0;align=left;spacingLeft=6;overflow=hidden;whiteSpace=wrap;html=1;" parent="03izMQPzzDkmwgU2qGfy-125" vertex="1">
          <mxGeometry x="30" width="150" height="30" as="geometry">
            <mxRectangle width="150" height="30" as="alternateBounds" />
          </mxGeometry>
        </mxCell>
        <mxCell id="03izMQPzzDkmwgU2qGfy-143" style="shape=tableRow;horizontal=0;startSize=0;swimlaneHead=0;swimlaneBody=0;fillColor=none;collapsible=0;dropTarget=0;points=[[0,0.5],[1,0.5]];portConstraint=eastwest;top=0;left=0;right=0;bottom=0;" parent="03izMQPzzDkmwgU2qGfy-121" vertex="1">
          <mxGeometry y="90" width="180" height="30" as="geometry" />
        </mxCell>
        <mxCell id="03izMQPzzDkmwgU2qGfy-144" style="shape=partialRectangle;connectable=0;fillColor=none;top=0;left=0;bottom=0;right=0;editable=1;overflow=hidden;whiteSpace=wrap;html=1;" parent="03izMQPzzDkmwgU2qGfy-143" vertex="1">
          <mxGeometry width="30" height="30" as="geometry">
            <mxRectangle width="30" height="30" as="alternateBounds" />
          </mxGeometry>
        </mxCell>
        <mxCell id="03izMQPzzDkmwgU2qGfy-145" value="PhoNum" style="shape=partialRectangle;connectable=0;fillColor=none;top=0;left=0;bottom=0;right=0;align=left;spacingLeft=6;overflow=hidden;whiteSpace=wrap;html=1;" parent="03izMQPzzDkmwgU2qGfy-143" vertex="1">
          <mxGeometry x="30" width="150" height="30" as="geometry">
            <mxRectangle width="150" height="30" as="alternateBounds" />
          </mxGeometry>
        </mxCell>
        <mxCell id="03izMQPzzDkmwgU2qGfy-140" style="shape=tableRow;horizontal=0;startSize=0;swimlaneHead=0;swimlaneBody=0;fillColor=none;collapsible=0;dropTarget=0;points=[[0,0.5],[1,0.5]];portConstraint=eastwest;top=0;left=0;right=0;bottom=0;" parent="03izMQPzzDkmwgU2qGfy-121" vertex="1">
          <mxGeometry y="120" width="180" height="30" as="geometry" />
        </mxCell>
        <mxCell id="03izMQPzzDkmwgU2qGfy-141" style="shape=partialRectangle;connectable=0;fillColor=none;top=0;left=0;bottom=0;right=0;editable=1;overflow=hidden;whiteSpace=wrap;html=1;" parent="03izMQPzzDkmwgU2qGfy-140" vertex="1">
          <mxGeometry width="30" height="30" as="geometry">
            <mxRectangle width="30" height="30" as="alternateBounds" />
          </mxGeometry>
        </mxCell>
        <mxCell id="03izMQPzzDkmwgU2qGfy-142" value="Email" style="shape=partialRectangle;connectable=0;fillColor=none;top=0;left=0;bottom=0;right=0;align=left;spacingLeft=6;overflow=hidden;whiteSpace=wrap;html=1;" parent="03izMQPzzDkmwgU2qGfy-140" vertex="1">
          <mxGeometry x="30" width="150" height="30" as="geometry">
            <mxRectangle width="150" height="30" as="alternateBounds" />
          </mxGeometry>
        </mxCell>
        <mxCell id="03izMQPzzDkmwgU2qGfy-128" value="" style="shape=tableRow;horizontal=0;startSize=0;swimlaneHead=0;swimlaneBody=0;fillColor=none;collapsible=0;dropTarget=0;points=[[0,0.5],[1,0.5]];portConstraint=eastwest;top=0;left=0;right=0;bottom=0;" parent="03izMQPzzDkmwgU2qGfy-121" vertex="1">
          <mxGeometry y="150" width="180" height="30" as="geometry" />
        </mxCell>
        <mxCell id="03izMQPzzDkmwgU2qGfy-129" value="" style="shape=partialRectangle;connectable=0;fillColor=none;top=0;left=0;bottom=0;right=0;editable=1;overflow=hidden;whiteSpace=wrap;html=1;" parent="03izMQPzzDkmwgU2qGfy-128" vertex="1">
          <mxGeometry width="30" height="30" as="geometry">
            <mxRectangle width="30" height="30" as="alternateBounds" />
          </mxGeometry>
        </mxCell>
        <mxCell id="03izMQPzzDkmwgU2qGfy-130" value="Address" style="shape=partialRectangle;connectable=0;fillColor=none;top=0;left=0;bottom=0;right=0;align=left;spacingLeft=6;overflow=hidden;whiteSpace=wrap;html=1;" parent="03izMQPzzDkmwgU2qGfy-128" vertex="1">
          <mxGeometry x="30" width="150" height="30" as="geometry">
            <mxRectangle width="150" height="30" as="alternateBounds" />
          </mxGeometry>
        </mxCell>
        <mxCell id="03izMQPzzDkmwgU2qGfy-131" value="" style="shape=tableRow;horizontal=0;startSize=0;swimlaneHead=0;swimlaneBody=0;fillColor=none;collapsible=0;dropTarget=0;points=[[0,0.5],[1,0.5]];portConstraint=eastwest;top=0;left=0;right=0;bottom=0;" parent="03izMQPzzDkmwgU2qGfy-121" vertex="1">
          <mxGeometry y="180" width="180" height="30" as="geometry" />
        </mxCell>
        <mxCell id="03izMQPzzDkmwgU2qGfy-132" value="" style="shape=partialRectangle;connectable=0;fillColor=none;top=0;left=0;bottom=0;right=0;editable=1;overflow=hidden;whiteSpace=wrap;html=1;" parent="03izMQPzzDkmwgU2qGfy-131" vertex="1">
          <mxGeometry width="30" height="30" as="geometry">
            <mxRectangle width="30" height="30" as="alternateBounds" />
          </mxGeometry>
        </mxCell>
        <mxCell id="03izMQPzzDkmwgU2qGfy-133" value="City" style="shape=partialRectangle;connectable=0;fillColor=none;top=0;left=0;bottom=0;right=0;align=left;spacingLeft=6;overflow=hidden;whiteSpace=wrap;html=1;" parent="03izMQPzzDkmwgU2qGfy-131" vertex="1">
          <mxGeometry x="30" width="150" height="30" as="geometry">
            <mxRectangle width="150" height="30" as="alternateBounds" />
          </mxGeometry>
        </mxCell>
        <mxCell id="03izMQPzzDkmwgU2qGfy-137" style="shape=tableRow;horizontal=0;startSize=0;swimlaneHead=0;swimlaneBody=0;fillColor=none;collapsible=0;dropTarget=0;points=[[0,0.5],[1,0.5]];portConstraint=eastwest;top=0;left=0;right=0;bottom=0;" parent="03izMQPzzDkmwgU2qGfy-121" vertex="1">
          <mxGeometry y="210" width="180" height="30" as="geometry" />
        </mxCell>
        <mxCell id="03izMQPzzDkmwgU2qGfy-138" style="shape=partialRectangle;connectable=0;fillColor=none;top=0;left=0;bottom=0;right=0;editable=1;overflow=hidden;whiteSpace=wrap;html=1;" parent="03izMQPzzDkmwgU2qGfy-137" vertex="1">
          <mxGeometry width="30" height="30" as="geometry">
            <mxRectangle width="30" height="30" as="alternateBounds" />
          </mxGeometry>
        </mxCell>
        <mxCell id="03izMQPzzDkmwgU2qGfy-139" value="State" style="shape=partialRectangle;connectable=0;fillColor=none;top=0;left=0;bottom=0;right=0;align=left;spacingLeft=6;overflow=hidden;whiteSpace=wrap;html=1;" parent="03izMQPzzDkmwgU2qGfy-137" vertex="1">
          <mxGeometry x="30" width="150" height="30" as="geometry">
            <mxRectangle width="150" height="30" as="alternateBounds" />
          </mxGeometry>
        </mxCell>
        <mxCell id="03izMQPzzDkmwgU2qGfy-134" style="shape=tableRow;horizontal=0;startSize=0;swimlaneHead=0;swimlaneBody=0;fillColor=none;collapsible=0;dropTarget=0;points=[[0,0.5],[1,0.5]];portConstraint=eastwest;top=0;left=0;right=0;bottom=0;" parent="03izMQPzzDkmwgU2qGfy-121" vertex="1">
          <mxGeometry y="240" width="180" height="30" as="geometry" />
        </mxCell>
        <mxCell id="03izMQPzzDkmwgU2qGfy-135" style="shape=partialRectangle;connectable=0;fillColor=none;top=0;left=0;bottom=0;right=0;editable=1;overflow=hidden;whiteSpace=wrap;html=1;" parent="03izMQPzzDkmwgU2qGfy-134" vertex="1">
          <mxGeometry width="30" height="30" as="geometry">
            <mxRectangle width="30" height="30" as="alternateBounds" />
          </mxGeometry>
        </mxCell>
        <mxCell id="03izMQPzzDkmwgU2qGfy-136" value="ZipCode" style="shape=partialRectangle;connectable=0;fillColor=none;top=0;left=0;bottom=0;right=0;align=left;spacingLeft=6;overflow=hidden;whiteSpace=wrap;html=1;" parent="03izMQPzzDkmwgU2qGfy-134" vertex="1">
          <mxGeometry x="30" width="150" height="30" as="geometry">
            <mxRectangle width="150" height="30" as="alternateBounds" />
          </mxGeometry>
        </mxCell>
        <mxCell id="03izMQPzzDkmwgU2qGfy-190" value="DriverTrackStats" style="shape=table;startSize=30;container=1;collapsible=1;childLayout=tableLayout;fixedRows=1;rowLines=0;fontStyle=1;align=center;resizeLast=1;html=1;whiteSpace=wrap;" parent="1" vertex="1">
          <mxGeometry x="750" y="150" width="180" height="270" as="geometry" />
        </mxCell>
        <mxCell id="03izMQPzzDkmwgU2qGfy-237" style="shape=tableRow;horizontal=0;startSize=0;swimlaneHead=0;swimlaneBody=0;fillColor=none;collapsible=0;dropTarget=0;points=[[0,0.5],[1,0.5]];portConstraint=eastwest;top=0;left=0;right=0;bottom=1;html=1;" parent="03izMQPzzDkmwgU2qGfy-190" vertex="1">
          <mxGeometry y="30" width="180" height="30" as="geometry" />
        </mxCell>
        <mxCell id="03izMQPzzDkmwgU2qGfy-238" value="PK" style="shape=partialRectangle;connectable=0;fillColor=none;top=0;left=0;bottom=0;right=0;fontStyle=1;overflow=hidden;html=1;whiteSpace=wrap;" parent="03izMQPzzDkmwgU2qGfy-237" vertex="1">
          <mxGeometry width="60" height="30" as="geometry">
            <mxRectangle width="60" height="30" as="alternateBounds" />
          </mxGeometry>
        </mxCell>
        <mxCell id="03izMQPzzDkmwgU2qGfy-239" value="StatId" style="shape=partialRectangle;connectable=0;fillColor=none;top=0;left=0;bottom=0;right=0;align=left;spacingLeft=6;fontStyle=5;overflow=hidden;html=1;whiteSpace=wrap;" parent="03izMQPzzDkmwgU2qGfy-237" vertex="1">
          <mxGeometry x="60" width="120" height="30" as="geometry">
            <mxRectangle width="120" height="30" as="alternateBounds" />
          </mxGeometry>
        </mxCell>
        <mxCell id="03izMQPzzDkmwgU2qGfy-240" style="shape=tableRow;horizontal=0;startSize=0;swimlaneHead=0;swimlaneBody=0;fillColor=none;collapsible=0;dropTarget=0;points=[[0,0.5],[1,0.5]];portConstraint=eastwest;top=0;left=0;right=0;bottom=0;html=1;" parent="03izMQPzzDkmwgU2qGfy-190" vertex="1">
          <mxGeometry y="60" width="180" height="30" as="geometry" />
        </mxCell>
        <mxCell id="03izMQPzzDkmwgU2qGfy-241" value="FK" style="shape=partialRectangle;connectable=0;fillColor=none;top=0;left=0;bottom=0;right=0;editable=1;overflow=hidden;html=1;whiteSpace=wrap;" parent="03izMQPzzDkmwgU2qGfy-240" vertex="1">
          <mxGeometry width="60" height="30" as="geometry">
            <mxRectangle width="60" height="30" as="alternateBounds" />
          </mxGeometry>
        </mxCell>
        <mxCell id="03izMQPzzDkmwgU2qGfy-242" value="DriverId" style="shape=partialRectangle;connectable=0;fillColor=none;top=0;left=0;bottom=0;right=0;align=left;spacingLeft=6;overflow=hidden;html=1;whiteSpace=wrap;" parent="03izMQPzzDkmwgU2qGfy-240" vertex="1">
          <mxGeometry x="60" width="120" height="30" as="geometry">
            <mxRectangle width="120" height="30" as="alternateBounds" />
          </mxGeometry>
        </mxCell>
        <mxCell id="bEAQp1f5nHbOzL0hVjTS-3" style="shape=tableRow;horizontal=0;startSize=0;swimlaneHead=0;swimlaneBody=0;fillColor=none;collapsible=0;dropTarget=0;points=[[0,0.5],[1,0.5]];portConstraint=eastwest;top=0;left=0;right=0;bottom=0;html=1;" parent="03izMQPzzDkmwgU2qGfy-190" vertex="1">
          <mxGeometry y="90" width="180" height="30" as="geometry" />
        </mxCell>
        <mxCell id="bEAQp1f5nHbOzL0hVjTS-4" value="FK" style="shape=partialRectangle;connectable=0;fillColor=none;top=0;left=0;bottom=0;right=0;editable=1;overflow=hidden;html=1;whiteSpace=wrap;" parent="bEAQp1f5nHbOzL0hVjTS-3" vertex="1">
          <mxGeometry width="60" height="30" as="geometry">
            <mxRectangle width="60" height="30" as="alternateBounds" />
          </mxGeometry>
        </mxCell>
        <mxCell id="bEAQp1f5nHbOzL0hVjTS-5" value="TrackId" style="shape=partialRectangle;connectable=0;fillColor=none;top=0;left=0;bottom=0;right=0;align=left;spacingLeft=6;overflow=hidden;html=1;whiteSpace=wrap;" parent="bEAQp1f5nHbOzL0hVjTS-3" vertex="1">
          <mxGeometry x="60" width="120" height="30" as="geometry">
            <mxRectangle width="120" height="30" as="alternateBounds" />
          </mxGeometry>
        </mxCell>
        <mxCell id="03izMQPzzDkmwgU2qGfy-253" style="shape=tableRow;horizontal=0;startSize=0;swimlaneHead=0;swimlaneBody=0;fillColor=none;collapsible=0;dropTarget=0;points=[[0,0.5],[1,0.5]];portConstraint=eastwest;top=0;left=0;right=0;bottom=0;html=1;" parent="03izMQPzzDkmwgU2qGfy-190" vertex="1">
          <mxGeometry y="120" width="180" height="30" as="geometry" />
        </mxCell>
        <mxCell id="03izMQPzzDkmwgU2qGfy-254" style="shape=partialRectangle;connectable=0;fillColor=none;top=0;left=0;bottom=0;right=0;editable=1;overflow=hidden;html=1;whiteSpace=wrap;" parent="03izMQPzzDkmwgU2qGfy-253" vertex="1">
          <mxGeometry width="60" height="30" as="geometry">
            <mxRectangle width="60" height="30" as="alternateBounds" />
          </mxGeometry>
        </mxCell>
        <mxCell id="03izMQPzzDkmwgU2qGfy-255" value="Date" style="shape=partialRectangle;connectable=0;fillColor=none;top=0;left=0;bottom=0;right=0;align=left;spacingLeft=6;overflow=hidden;html=1;whiteSpace=wrap;" parent="03izMQPzzDkmwgU2qGfy-253" vertex="1">
          <mxGeometry x="60" width="120" height="30" as="geometry">
            <mxRectangle width="120" height="30" as="alternateBounds" />
          </mxGeometry>
        </mxCell>
        <mxCell id="03izMQPzzDkmwgU2qGfy-197" value="" style="shape=tableRow;horizontal=0;startSize=0;swimlaneHead=0;swimlaneBody=0;fillColor=none;collapsible=0;dropTarget=0;points=[[0,0.5],[1,0.5]];portConstraint=eastwest;top=0;left=0;right=0;bottom=0;html=1;" parent="03izMQPzzDkmwgU2qGfy-190" vertex="1">
          <mxGeometry y="150" width="180" height="30" as="geometry" />
        </mxCell>
        <mxCell id="03izMQPzzDkmwgU2qGfy-198" value="" style="shape=partialRectangle;connectable=0;fillColor=none;top=0;left=0;bottom=0;right=0;editable=1;overflow=hidden;html=1;whiteSpace=wrap;" parent="03izMQPzzDkmwgU2qGfy-197" vertex="1">
          <mxGeometry width="60" height="30" as="geometry">
            <mxRectangle width="60" height="30" as="alternateBounds" />
          </mxGeometry>
        </mxCell>
        <mxCell id="03izMQPzzDkmwgU2qGfy-199" value="0 to 60 Time" style="shape=partialRectangle;connectable=0;fillColor=none;top=0;left=0;bottom=0;right=0;align=left;spacingLeft=6;overflow=hidden;html=1;whiteSpace=wrap;" parent="03izMQPzzDkmwgU2qGfy-197" vertex="1">
          <mxGeometry x="60" width="120" height="30" as="geometry">
            <mxRectangle width="120" height="30" as="alternateBounds" />
          </mxGeometry>
        </mxCell>
        <mxCell id="03izMQPzzDkmwgU2qGfy-200" value="" style="shape=tableRow;horizontal=0;startSize=0;swimlaneHead=0;swimlaneBody=0;fillColor=none;collapsible=0;dropTarget=0;points=[[0,0.5],[1,0.5]];portConstraint=eastwest;top=0;left=0;right=0;bottom=0;html=1;" parent="03izMQPzzDkmwgU2qGfy-190" vertex="1">
          <mxGeometry y="180" width="180" height="30" as="geometry" />
        </mxCell>
        <mxCell id="03izMQPzzDkmwgU2qGfy-201" value="" style="shape=partialRectangle;connectable=0;fillColor=none;top=0;left=0;bottom=0;right=0;editable=1;overflow=hidden;html=1;whiteSpace=wrap;" parent="03izMQPzzDkmwgU2qGfy-200" vertex="1">
          <mxGeometry width="60" height="30" as="geometry">
            <mxRectangle width="60" height="30" as="alternateBounds" />
          </mxGeometry>
        </mxCell>
        <mxCell id="03izMQPzzDkmwgU2qGfy-202" value="0 to 100 Time" style="shape=partialRectangle;connectable=0;fillColor=none;top=0;left=0;bottom=0;right=0;align=left;spacingLeft=6;overflow=hidden;html=1;whiteSpace=wrap;" parent="03izMQPzzDkmwgU2qGfy-200" vertex="1">
          <mxGeometry x="60" width="120" height="30" as="geometry">
            <mxRectangle width="120" height="30" as="alternateBounds" />
          </mxGeometry>
        </mxCell>
        <mxCell id="03izMQPzzDkmwgU2qGfy-208" style="shape=tableRow;horizontal=0;startSize=0;swimlaneHead=0;swimlaneBody=0;fillColor=none;collapsible=0;dropTarget=0;points=[[0,0.5],[1,0.5]];portConstraint=eastwest;top=0;left=0;right=0;bottom=0;html=1;" parent="03izMQPzzDkmwgU2qGfy-190" vertex="1">
          <mxGeometry y="210" width="180" height="30" as="geometry" />
        </mxCell>
        <mxCell id="03izMQPzzDkmwgU2qGfy-209" style="shape=partialRectangle;connectable=0;fillColor=none;top=0;left=0;bottom=0;right=0;editable=1;overflow=hidden;html=1;whiteSpace=wrap;" parent="03izMQPzzDkmwgU2qGfy-208" vertex="1">
          <mxGeometry width="60" height="30" as="geometry">
            <mxRectangle width="60" height="30" as="alternateBounds" />
          </mxGeometry>
        </mxCell>
        <mxCell id="03izMQPzzDkmwgU2qGfy-210" value="Fastest Time" style="shape=partialRectangle;connectable=0;fillColor=none;top=0;left=0;bottom=0;right=0;align=left;spacingLeft=6;overflow=hidden;html=1;whiteSpace=wrap;" parent="03izMQPzzDkmwgU2qGfy-208" vertex="1">
          <mxGeometry x="60" width="120" height="30" as="geometry">
            <mxRectangle width="120" height="30" as="alternateBounds" />
          </mxGeometry>
        </mxCell>
        <mxCell id="03izMQPzzDkmwgU2qGfy-205" style="shape=tableRow;horizontal=0;startSize=0;swimlaneHead=0;swimlaneBody=0;fillColor=none;collapsible=0;dropTarget=0;points=[[0,0.5],[1,0.5]];portConstraint=eastwest;top=0;left=0;right=0;bottom=0;html=1;" parent="03izMQPzzDkmwgU2qGfy-190" vertex="1">
          <mxGeometry y="240" width="180" height="30" as="geometry" />
        </mxCell>
        <mxCell id="03izMQPzzDkmwgU2qGfy-206" style="shape=partialRectangle;connectable=0;fillColor=none;top=0;left=0;bottom=0;right=0;editable=1;overflow=hidden;html=1;whiteSpace=wrap;" parent="03izMQPzzDkmwgU2qGfy-205" vertex="1">
          <mxGeometry width="60" height="30" as="geometry">
            <mxRectangle width="60" height="30" as="alternateBounds" />
          </mxGeometry>
        </mxCell>
        <mxCell id="03izMQPzzDkmwgU2qGfy-207" value="Top Speed" style="shape=partialRectangle;connectable=0;fillColor=none;top=0;left=0;bottom=0;right=0;align=left;spacingLeft=6;overflow=hidden;html=1;whiteSpace=wrap;" parent="03izMQPzzDkmwgU2qGfy-205" vertex="1">
          <mxGeometry x="60" width="120" height="30" as="geometry">
            <mxRectangle width="120" height="30" as="alternateBounds" />
          </mxGeometry>
        </mxCell>
        <mxCell id="bEAQp1f5nHbOzL0hVjTS-6" value="" style="edgeStyle=entityRelationEdgeStyle;fontSize=12;html=1;endArrow=ERoneToMany;startArrow=ERmandOne;rounded=0;entryX=1.005;entryY=0.289;entryDx=0;entryDy=0;entryPerimeter=0;exitX=0;exitY=0.5;exitDx=0;exitDy=0;" parent="1" source="03izMQPzzDkmwgU2qGfy-122" target="bEAQp1f5nHbOzL0hVjTS-3" edge="1">
          <mxGeometry width="100" height="100" relative="1" as="geometry">
            <mxPoint x="890" y="300" as="sourcePoint" />
            <mxPoint x="990" y="200" as="targetPoint" />
          </mxGeometry>
        </mxCell>
        <mxCell id="bEAQp1f5nHbOzL0hVjTS-7" value="" style="edgeStyle=entityRelationEdgeStyle;fontSize=12;html=1;endArrow=ERoneToMany;startArrow=ERmandOne;rounded=0;exitX=1;exitY=0.5;exitDx=0;exitDy=0;entryX=0;entryY=0.5;entryDx=0;entryDy=0;" parent="1" source="03izMQPzzDkmwgU2qGfy-2" target="03izMQPzzDkmwgU2qGfy-240" edge="1">
          <mxGeometry width="100" height="100" relative="1" as="geometry">
            <mxPoint x="590" y="300" as="sourcePoint" />
            <mxPoint x="690" y="170" as="targetPoint" />
          </mxGeometry>
        </mxCell>
      </root>
    </mxGraphModel>
  </diagram>
</mxfile>
